<svg width="300" height="80" viewBox="0 0 300 80" fill="none" xmlns="http://www.w3.org/2000/svg">
  <rect width="300" height="80" fill="#1A1A1A"></rect>
  <g transform="translate(20, 15)">
    <!-- Upgraded Logo Symbol -->
    <g>
      <circle cx="25" cy="25" r="25" fill="#4F5DFF"></circle>
      <path d="M25 10C26 10 27 11 27 12V22H37C38 22 39 23 39 25C39 27 38 28 37 28H27V38C27 39 26 40 25 40C24 40 23 39 23 38V28H13C12 28 11 27 11 25C11 23 12 22 13 22H23V12C23 11 24 10 25 10Z" fill="white"></path>
      <circle cx="44" cy="6" r="3" fill="#4F5DFF"></circle>
    </g>
    <!-- Logo Text -->
    <g transform="translate(60, 10)">
      <text x="0" y="10" font-family="Segoe UI, sans-serif" font-size="24" font-weight="bold" fill="#1323CA">QuickDoc</text>
      <text x="0" y="30" font-family="Segoe UI, sans-serif" font-size="14" fill="#CCCCCC">Dashboard Panel</text>
    </g>
  </g>
</svg>
